<svg aria-hidden="true" style="position:absolute;width:0;height:0" xmlns="http://www.w3.org/2000/svg" overflow="hidden"><defs><symbol id="icon-antenna" viewBox="0 0 30 32"><path fill="var(--color1, #212121)" d="M29.86 22.1l-8.44-8.5.93-4.62a2.16 2.16 0 10-1.24-1.29l-4.96.6L8.05.16A.53.53 0 007.69 0a.53.53 0 00-.37.16L5.8 1.66c-.21.2-.21.55 0 .75l.8.83A14.94 14.94 0 009.14 20.9c.04.04.09.08.14.1-.03.18-.05.36-.05.55v6.18h-6.4A2.67 2.67 0 00.16 30.4v1.07c0 .3.23.53.53.53h24.53c.3 0 .53-.24.53-.53V30.4c0-1.47-1.2-2.66-2.66-2.66h-6.4v-2.75a14.85 14.85 0 0010.09-1.46l.81.82a.53.53 0 00.75 0l1.52-1.5c.2-.2.2-.54 0-.75zm-7.5-15.87a1.07 1.07 0 11.76 1.82 1.07 1.07 0 01-.75-1.82zm-1.25 3.5l-.6 2.95-1.17-1.18 1.77-1.76zm-.6-.9l-1.93 1.92-1.48-1.5 3.4-.41zm2.58 19.97c.88 0 1.6.72 1.6 1.6v.53H1.22v-.53c0-.88.72-1.6 1.6-1.6H23.1zm-7.47-2.13v1.06H10.3v-1.06h5.33zM10.3 25.6v-4.05c0-1.3 1.2-2.35 2.67-2.35s2.66 1.05 2.66 2.35v4.05H10.3zm6.4-1.7v-2.35c0-1.89-1.68-3.42-3.73-3.42a3.8 3.8 0 00-3.28 1.79A13.87 13.87 0 017.4 4.03L26 22.74a13.82 13.82 0 01-9.31 1.16zm11.29-.68L6.92 2.04l.76-.75 7.93 7.98h.01l13.12 13.2-.76.75z"/><path fill="var(--color2, #2196f3)" d="M12.96 20.27a1.6 1.6 0 100 3.2 1.6 1.6 0 100-3.2zm.38 1.98c-.1.1-.24.15-.38.15a.53.53 0 010-1.07.53.53 0 01.37.92z"/></symbol><symbol id="icon-clock" viewBox="0 0 32 32"><path fill="var(--color1, #212121)" d="M31.3 15.3a15.3 15.3 0 10-19.96 14.58l.18.03c.12 0 .24-.03.35-.1.13-.07.23-.2.28-.35L16 17.21a1.91 1.91 0 10-.84-3.63l-5.1-5.1a.64.64 0 00-.9.9l5.1 5.1c-.4.8-.17 1.77.53 2.31l-3.68 11.67a14.04 14.04 0 1110.57-.35l-.4-1.87a.64.64 0 00-1.04-.34l-3.84 3.42a.64.64 0 00.23 1.09l4.9 1.56a.64.64 0 00.82-.74l-.4-1.84A15.26 15.26 0 0031.3 15.3zM16 14.66a.64.64 0 110 1.28.64.64 0 010-1.28zm2.1 14.87l2.18-1.95.6 2.84-2.79-.9z"/><path fill="var(--color2, #2196f3)" d="M15.35 3.19v1.27a.64.64 0 101.28 0V3.19a.64.64 0 00-1.28 0zM3.88 14.66a.64.64 0 000 1.28h1.27a.64.64 0 100-1.28H3.88zM28.1 15.94a.64.64 0 100-1.28h-1.27a.64.64 0 000 1.28h1.28z"/></symbol><symbol id="icon-comp" viewBox="0 0 32 32"><path fill="var(--color2, #2196f3)" d="M14.93 14.96h1.06v4.8h-1.06v-4.8zM19.19 17.1h1.07v2.66h-1.07V17.1zM10.66 18.7h1.07v1.06h-1.07V18.7zM7.46 18.16h1.07v1.6H7.46v-1.6z"/><path fill="var(--color1, #212121)" d="M1.6 28.3h25.59c.88 0 1.6-.73 1.6-1.6v-2.14c0-.88-.72-1.6-1.6-1.6h-.54V9.66l3.03-2.86a1.6 1.6 0 10-.75-.76L26.65 8.2V6.97c0-.88-.71-1.6-1.6-1.6H3.73c-.88 0-1.6.72-1.6 1.6v16H1.6c-.88 0-1.6.7-1.6 1.6v2.12c0 .89.72 1.6 1.6 1.6zM30.38 4.83a.53.53 0 110 1.06.53.53 0 010-1.06zM3.2 6.97c0-.3.24-.53.53-.53h21.32c.3 0 .54.23.54.53V9.2l-1.07 1.01V8.03c0-.29-.24-.53-.53-.53H4.79c-.29 0-.53.24-.53.53v13.33c0 .3.24.53.54.53h19.19c.3 0 .53-.23.53-.53V11.7l1.07-1.01v12.28H3.19v-16zM8 13.9a1.6 1.6 0 101.1 2.75l1.86.93c.21.1.47.06.63-.12l3.94-4.44 3.87 2.9c.21.16.5.14.69-.03l3.36-3.2v8.14H5.33V8.57h18.12v2.66l-3.77 3.57-3.9-2.93a.53.53 0 00-.72.08l-4 4.49-1.49-.75c.02-.06.02-.13.02-.19 0-.88-.71-1.6-1.6-1.6zm.53 1.6a.53.53 0 11-1.07 0 .53.53 0 011.07 0zm3.2 8.53h5.33v.53c0 .3-.24.53-.53.53h-4.27a.53.53 0 01-.53-.53v-.53zm-10.66.53c0-.3.24-.53.53-.53h9.06v.53c0 .88.72 1.6 1.6 1.6h4.26c.89 0 1.6-.72 1.6-1.6v-.53h9.06c.3 0 .54.24.54.53v2.13c0 .3-.24.53-.53.53H1.59a.53.53 0 01-.52-.53v-2.13z"/></symbol><symbol id="icon-cosmos" viewBox="0 0 32 32"><path fill="var(--color2, #2196f3)" d="M31.97 4.52a.53.53 0 00-.43-.36l-1.9-.28-.86-1.73c-.18-.36-.78-.36-.96 0l-.85 1.73-1.91.28a.54.54 0 00-.3.91l1.38 1.35-.32 1.9c-.04.2.05.4.21.52.17.12.38.14.56.04l1.71-.9 1.71.9a.54.54 0 00.78-.56l-.33-1.9 1.38-1.35c.15-.14.2-.35.14-.55zm-2.46 1.33a.53.53 0 00-.15.47l.19 1.12-1-.53a.53.53 0 00-.5 0l-1 .53.2-1.12a.53.53 0 00-.16-.47l-.81-.79 1.12-.16a.53.53 0 00.4-.3l.5-1 .5 1c.08.16.23.27.4.3l1.12.16-.8.8zM26.13 20.52h-1.06v1.07h1.06v-1.07zM26.13 22.66h-1.06v1.06h1.06v-1.06zM27.2 21.59h-1.07v1.07h1.07v-1.07zM25.07 21.59H24v1.07h1.07v-1.07zM22.4 26.39h-1.07v1.07h1.07v-1.07zM22.4 28.52h-1.07v1.07h1.07v-1.07zM23.47 27.46H22.4v1.06h1.07v-1.06zM21.33 27.46h-1.06v1.06h1.06v-1.06zM16 24.26h-1.07v1.06H16v-1.06zM16 26.39h-1.07v1.07H16v-1.07zM17.07 25.32H16v1.07h1.07v-1.07zM14.93 25.32h-1.06v1.07h1.06v-1.07zM5.87 6.12H4.8V7.2h1.07V6.12zM5.87 8.26H4.8v1.06h1.07V8.26zM6.93 7.19H5.87v1.07h1.06V7.19zM4.8 7.19H3.73v1.07H4.8V7.19z"/><path fill="var(--color1, #212121)" d="M24.71 14.16c-.28-.39-.7-.64-1.18-.7-.48-.07-.96.05-1.34.35l-1.26.96-1.9 1.41-1.35-.54A6.94 6.94 0 0014.83 2.4a6.96 6.96 0 00-6.96 6.93c0 1.39.42 2.68 1.12 3.76l-2.76-.02H6.2l-.16.03-.03.02h-.02l-3.24 1.6-1.89.9a1.78 1.78 0 00.93 3.3c.3.01.58-.06.84-.2l1.4-.74 2.26-1.17h1.35L2.2 22.2.86 23.55a1.65 1.65 0 000 2.35 1.67 1.67 0 002.36 0l1.31-1.3 1.74-1.3.9.89-1.76 1.75-1.34 1.34a1.65 1.65 0 000 2.36 1.67 1.67 0 002.36 0l3.48-3.47 1.01-1 .02-.02 5.17-5.66 3.47.5h.07c.07 0 .13-.02.2-.04l.04-.02.06-.03 3.21-2.13.03-.03.04-.03 1.27-1.19c.67-.62.76-1.63.22-2.36zM2.14 17.77a.71.71 0 01-.56.05.72.72 0 01-.21-1.26l1.31-.63.45 1.31-.99.53zm3.5-1.83l-1.55.8-.44-1.28 2.03-1-.04 1.48zm15.1-6.62c0 .92-.22 1.79-.6 2.56l-4.18-1.9a1.86 1.86 0 00-.8-1.39l1.47-4.86a5.88 5.88 0 014.1 5.6zm-11.8 0a5.89 5.89 0 016.65-5.81l-1.44 4.75h-.05a1.87 1.87 0 100 3.73c.7 0 1.3-.38 1.62-.95l3.86 1.76A5.9 5.9 0 018.94 9.32zm5.96.8a.8.8 0 01-1.6 0 .8.8 0 011.6 0zM2.46 25.15a.6.6 0 01-.85 0 .6.6 0 010-.85l.96-.96.85.85-.96.96zm3.22 3.73a.6.6 0 01-.86 0 .6.6 0 010-.84l.97-.96.85.85-.96.95zm3.48-3.47l-1.77 1.76-.85-.85 1.76-1.75c.05-.04.07-.09.1-.14l.02-.04c.02-.04.02-.08.03-.13l.01-.07-.02-.1c0-.04 0-.07-.02-.1a.55.55 0 00-.09-.14l-.02-.04-1.61-1.6-.06-.04a.5.5 0 00-.09-.05.51.51 0 00-.09-.04.5.5 0 00-.1-.02.5.5 0 00-.1 0l-.1.03a.48.48 0 00-.1.04l-.06.03-1.77 1.33-.9-.9 2.4-2.39 4.36 4.3-.93.91zm6.82-7.02h-.05a.56.56 0 00-.3.08.5.5 0 00-.08.06l-.04.03-4.7 5.15-4.33-4.26 2.84-2.82a.53.53 0 00-.38-.9H6.72l.03-1.6 3.1.02a6.95 6.95 0 006.26 1.98c.04.03.08.07.13.09l2.41.96.15.75.18.89-3-.43zm4.04.18l-.31-1.56 1.44-1.08.95 1.26-2.08 1.38zm3.75-2.83l-.83.79-.94-1.24.84-.64a.73.73 0 01.54-.14.72.72 0 01.4 1.23z"/><path fill="var(--color1, #212121)" d="M13.6 18.54l-2.14-2.13a.53.53 0 00-.75 0l-2.15 2.13a.54.54 0 000 .76l2.15 2.13a.54.54 0 00.75 0l2.14-2.13a.54.54 0 000-.76zm-2.52 1.76L9.7 18.92l1.38-1.38 1.39 1.38-1.39 1.38zM17.16 5.07l-.25 1.04c.07.01 1.73.45 1.73 2.15h1.07c0-2.02-1.66-2.97-2.55-3.19zM19.71 9.32h-1.07v1.07h1.07V9.32z"/></symbol><symbol id="icon-mail" viewBox="0 0 47 32"><path fill="var(--color2, #2196f3)" d="M42.18 0H4.36C1.96 0 0 1.77 0 3.95v23.68c0 2.17 1.96 3.94 4.36 3.94h37.82c2.4 0 4.37-1.77 4.37-3.94V3.95c0-2.18-1.96-3.95-4.37-3.95zm0 2.63c.2 0 .39.04.56.1L23.27 18 3.81 2.73c.17-.06.36-.1.55-.1h37.82zm0 26.31H4.36c-.8 0-1.45-.59-1.45-1.32V5.52l19.4 15.2c.28.22.62.33.96.33s.68-.1.96-.32L43.63 5.5v22.12c0 .72-.65 1.31-1.45 1.31z"/></symbol><symbol id="icon-tel" viewBox="0 0 21 32"><path fill="var(--color3, #757575)" d="M18.13 0H3.2C1.43 0 0 1.3 0 2.9v25.08c0 1.6 1.43 2.9 3.2 2.9h14.93c1.77 0 3.2-1.3 3.2-2.9V2.89c0-1.6-1.43-2.89-3.2-2.89zM3.2 1.93h14.93c.6 0 1.07.43 1.07.96v20.26H2.13V2.9c0-.53.48-.96 1.07-.96zm14.93 27.01H3.2c-.59 0-1.07-.43-1.07-.96v-2.9H19.2v2.9c0 .53-.48.96-1.07.96z"/></symbol><symbol id="icon-send" viewBox="0 0 32 32"><path fill="var(--color4, #fff)" d="M32 0L0 18l10.23 3.79L26 7 14 23.19h.01H14V32l5.74-6.7L27 28l5-28z"/></symbol><symbol id="icon-instagram" viewBox="0 0 32 32"><path fill="var(--color5, #afb1b8)" d="M31.97 9.4a11.7 11.7 0 00-.74-3.87 7.8 7.8 0 00-1.86-2.84A7.87 7.87 0 0026.54.84C25.52.45 24.36.17 22.66.1 20.95.02 20.4 0 16.06 0s-4.89.02-6.6.1C7.76.16 6.6.43 5.58.83a7.8 7.8 0 00-2.84 1.85A7.87 7.87 0 00.9 5.52C.5 6.54.23 7.7.16 9.4c-.08 1.71-.1 2.26-.1 6.6s.02 4.9.09 6.6c.08 1.7.35 2.87.74 3.88a7.9 7.9 0 001.85 2.84c.8.81 1.77 1.44 2.84 1.84 1.02.4 2.18.67 3.88.75 1.7.07 2.25.09 6.6.09s4.88-.02 6.59-.1a11.7 11.7 0 003.88-.74 8.18 8.18 0 004.68-4.68c.4-1.02.67-2.18.75-3.88.07-1.7.09-2.25.09-6.6s0-4.89-.08-6.6zm-2.88 13.07a8.76 8.76 0 01-.55 2.97 5.31 5.31 0 01-3.04 3.04c-.56.22-1.41.48-2.97.55-1.69.07-2.2.1-6.46.1s-4.79-.02-6.47-.1a8.76 8.76 0 01-2.97-.55 4.93 4.93 0 01-1.84-1.2 4.97 4.97 0 01-1.19-1.83 8.81 8.81 0 01-.55-2.97c-.07-1.69-.1-2.2-.1-6.47s.03-4.78.1-6.46c.07-1.56.33-2.4.55-2.97.26-.7.66-1.32 1.2-1.84a4.97 4.97 0 011.84-1.19A8.81 8.81 0 019.6 3c1.69-.07 2.2-.1 6.46-.1 4.28 0 4.78.03 6.47.1 1.56.07 2.4.33 2.96.55.7.26 1.33.66 1.84 1.2.53.51.94 1.14 1.2 1.83.22.57.48 1.42.55 2.97.07 1.69.1 2.2.1 6.46s-.03 4.77-.1 6.46z"/><path fill="var(--color5, #afb1b8)" d="M16.06 7.78a8.22 8.22 0 100 16.45 8.22 8.22 0 000-16.45zm0 13.55a5.33 5.33 0 110-10.66 5.33 5.33 0 010 10.67zM26.52 7.46a1.92 1.92 0 11-3.83 0 1.92 1.92 0 013.83 0z"/></symbol><symbol id="icon-linkedin" viewBox="0 0 32 32"><path fill="var(--color5, #afb1b8)" d="M32 32V20.26c0-5.74-1.24-10.16-7.95-10.16-3.23 0-5.39 1.77-6.27 3.45h-.1v-2.92h-6.36V32h6.63V21.42c0-2.79.52-5.48 3.97-5.48 3.4 0 3.45 3.18 3.45 5.66V32H32zM.53 10.64h6.63V32H.53V10.64zM3.84 0C1.72 0 0 1.72 0 3.84s1.72 3.88 3.84 3.88A3.88 3.88 0 007.7 3.84 3.85 3.85 0 003.84 0z"/></symbol><symbol id="icon-twitter" viewBox="0 0 32 32"><path fill="var(--color5, #afb1b8)" d="M32 6.08c-1.19.52-2.46.87-3.78 1.03a6.52 6.52 0 002.89-3.62 13.11 13.11 0 01-4.16 1.59 6.57 6.57 0 00-11.2 5.98A18.57 18.57 0 012.23 4.2a6.57 6.57 0 002.02 8.77 6.48 6.48 0 01-2.97-.81v.07a6.59 6.59 0 005.26 6.44 6.55 6.55 0 01-2.97.1 6.62 6.62 0 006.13 4.58 13.18 13.18 0 01-9.7 2.7A18.47 18.47 0 0010.06 29c12.08 0 18.68-10 18.68-18.67 0-.29-.01-.57-.03-.85 1.3-.92 2.4-2.07 3.29-3.4z"/></symbol><symbol id="icon-facebook" viewBox="0 0 32 32"><path fill="var(--color5, #afb1b8)" d="M21.33 5.31h2.92V.23C23.75.15 22.01 0 19.99 0c-4.2 0-7.1 2.65-7.1 7.52V12H8.26v5.69h4.65V32h5.7V17.69h4.46l.7-5.69H18.6V8.08c0-1.64.45-2.77 2.74-2.77z"/></symbol><symbol id="icon-clients1" viewBox="0 0 30 32"><path fill="var(--color5, #afb1b8)" d="M4 0l4.87 4.47h13.6v12.46l4.86 4.47V0H4z"/><path fill="var(--color5, #afb1b8)" d="M0 4.28v20.79h22.67v-8.26L9.02 4.29 0 4.28zm18.35 17.75H3.59V8.05h1.04v13.03h13.72v.95zM6.53 29l.54-1.13h.46l-.8 1.5v.87h-.4v-.88l-.8-1.5h.45L6.53 29zm2.34.69h-.92l-.2.55h-.42l.9-2.37h.36l.9 2.37h-.43l-.2-.55zm-.8-.34h.68l-.34-.98-.34.98zm2.42.25c0-.11.03-.21.1-.3.05-.1.17-.2.34-.33-.09-.12-.15-.21-.19-.3a.58.58 0 01-.05-.23c0-.19.05-.33.16-.44.12-.11.27-.16.46-.16a.6.6 0 01.42.15c.11.1.17.22.17.37 0 .1-.03.2-.08.28a.9.9 0 01-.24.24l-.16.12.45.54c.07-.13.1-.27.1-.43h.35c0 .29-.07.53-.2.71l.34.42H12l-.13-.16c-.17.13-.37.19-.6.19s-.43-.06-.57-.19a.62.62 0 01-.21-.48zm.79.35a.6.6 0 00.37-.13l-.52-.6-.05.03c-.13.1-.2.2-.2.34 0 .1.04.2.11.26s.17.1.28.1zm-.22-1.52c0 .09.05.2.16.34l.19-.12.05-.04a.3.3 0 00.1-.23.2.2 0 00-.07-.16.25.25 0 00-.18-.07c-.08 0-.14.03-.18.08s-.07.12-.07.2zm4.3 1.04a.86.86 0 01-.28.59.96.96 0 01-.65.21.94.94 0 01-.5-.13c-.14-.1-.25-.22-.33-.39s-.12-.35-.12-.57v-.22c0-.23.04-.42.12-.6s.2-.3.34-.39c.15-.09.32-.13.51-.13.26 0 .47.07.63.2s.26.35.28.61h-.4c-.03-.17-.08-.3-.16-.37s-.2-.11-.35-.11a.48.48 0 00-.41.2.98.98 0 00-.15.57v.21c0 .26.05.45.14.59s.23.2.4.2.29-.04.37-.11.13-.2.15-.36h.41zm2.26-.36c0 .24-.04.44-.12.62-.08.17-.2.3-.34.4a.95.95 0 01-.52.14.96.96 0 01-.51-.14.93.93 0 01-.35-.4 1.42 1.42 0 01-.12-.6v-.14c0-.23.04-.43.12-.6a.92.92 0 01.86-.55.9.9 0 01.86.54c.08.17.12.37.13.6v.13zm-.4-.12c0-.26-.06-.46-.16-.6a.49.49 0 00-.42-.21.49.49 0 00-.42.2c-.1.15-.15.34-.15.6v.14c0 .26.05.46.15.6.1.14.24.21.42.21s.32-.07.42-.2c.1-.14.15-.35.15-.61v-.13z"/></symbol><symbol id="icon-clients2" viewBox="0 0 25 32"><path fill="var(--color5, #afb1b8)" d="M10.45 1.8h.08c.16 0 .32.02.5.04.72.05 1.45.16 2.17.33V.4a12.97 12.97 0 00-3.16-.4h-.26C8.25 0 6.74.2 5.26.58A18.3 18.3 0 00.47 2.53v17.48a19.48 19.48 0 018.4-2.37h.05l.66-.02v-1.79a21.16 21.16 0 00-6.72 1.18l-.62.2V3.6l.27-.13A17.4 17.4 0 019.78 1.8h.28c.12 0 .25 0 .38.02z"/><path fill="var(--color5, #afb1b8)" d="M14.84 3.65a15.82 15.82 0 01-3.42-.37v17.27c1.12.28 2.27.41 3.42.4 1.52 0 3.04-.2 4.52-.58 1.68-.42 3.3-1.07 4.79-1.94V1.26a19.58 19.58 0 01-9.31 2.4zm6.9.3l.63-.21v13.63l-.27.13a17.06 17.06 0 01-8.47 1.62l-.43-.04V5.06l.5.04a21.1 21.1 0 008.05-1.15zM1.68 25.98A.91.91 0 001 25.7c-.14 0-.27.02-.4.07a.91.91 0 00-.51.52c-.05.12-.07.25-.07.39V29c0 .17.02.33.09.48a.81.81 0 00.55.48c.12.03.23.05.35.05a.97.97 0 00.9-.61.95.95 0 00.07-.37v-.26h-.61v.2c0 .07-.01.15-.04.21a.36.36 0 01-.09.13.37.37 0 01-.12.07.42.42 0 01-.13.02.31.31 0 01-.29-.12.55.55 0 01-.08-.32V26.8c0-.12.02-.24.08-.35a.31.31 0 01.3-.14c.05 0 .1 0 .15.03s.09.06.12.1c.06.09.1.2.1.31v.2h.6v-.23a1.1 1.1 0 00-.28-.74zM5.31 25.95a1.1 1.1 0 00-.7-.26 1.08 1.08 0 00-.68.26c-.1.1-.18.2-.24.33-.06.14-.09.3-.09.45v2.24c0 .16.03.31.1.46a.9.9 0 00.23.31c.1.09.2.15.32.2a1.08 1.08 0 00.73 0c.12-.05.23-.11.33-.2.1-.09.18-.2.23-.31.06-.15.1-.3.09-.46v-2.24a1.02 1.02 0 00-.32-.78zm-.28 3.02a.4.4 0 01-.13.32.45.45 0 01-.57 0 .4.4 0 01-.12-.32v-2.24a.4.4 0 01.12-.32.45.45 0 01.57 0 .4.4 0 01.13.32v2.24zM10.07 29.97v-4.24h-.59l-.77 2.24-.78-2.24h-.59v4.24h.61v-2.58h.01l.6 1.82h.3l.6-1.82v2.58h.61zM13.51 26.03a.84.84 0 00-.34-.24 1.36 1.36 0 00-.44-.06h-.9v4.24h.6V28.3h.32c.18.01.37-.03.54-.11a.88.88 0 00.33-.33c.07-.11.12-.24.14-.37a3 3 0 00-.02-1.08.9.9 0 00-.23-.4zm-.3 1.29c-.01.08-.03.15-.07.22a.35.35 0 01-.15.15.62.62 0 01-.29.05h-.27V26.3h.3c.1 0 .2.02.28.06.06.03.11.09.14.15.04.08.05.16.06.24V27.32h-.01zM16.37 25.73h-.5l-.92 4.24h.6l.18-.91h.82l.18.9h.6l-.96-4.23zm-.55 2.75l.3-1.54.3 1.54h-.6zM20.28 28.28h-.01l-.92-2.55h-.58v4.24h.6v-2.55h.02l.92 2.55h.57v-4.24h-.6v2.55zM23.97 25.73l-.49 1.69h-.01l-.49-1.69h-.64l.83 2.45v1.79h.6v-1.8l.84-2.44h-.64zM0 31.17h.3v.81h.19v-.81h.29V31H0v.17zM2.45 31l-.38.98h.2l.09-.22h.39l.08.22h.22l-.4-.98h-.2zm-.03.6l.13-.37.13.36h-.26zM4.87 31.62h.22v.13a.38.38 0 01-.23.08c-.04 0-.08 0-.12-.02l-.09-.07a.41.41 0 01-.07-.26c0-.22.1-.33.28-.33.05 0 .1 0 .14.04s.07.07.08.12l.2-.04c-.05-.2-.18-.29-.42-.29a.5.5 0 00-.34.13c-.05.05-.1.1-.12.17s-.03.14-.03.2c0 .14.04.27.13.38a.48.48 0 00.38.14c.15 0 .3-.05.41-.16v-.39h-.42v.17zM7.34 31h-.2v.98h.69v-.16h-.5V31zM9.43 31h-.2v.98h.2V31zM11.47 31.66l-.4-.66h-.2v.98h.19v-.64l.4.64h.2V31h-.2v.66zM13.31 31.55h.5v-.17h-.5v-.21h.53V31h-.72v.98h.74v-.16h-.54v-.27zM17.8 31.39h-.4v-.4h-.2v1h.2v-.44h.4v.43h.19V31h-.2v.39zM19.65 31.55h.5v-.17h-.5v-.21h.53V31h-.73v.98h.75v-.16h-.55v-.27zM22.17 31.55c.17-.03.26-.12.26-.28a.24.24 0 00-.1-.21.55.55 0 00-.29-.06h-.42v.98h.2v-.41h.04c.04 0 .09 0 .12.02s.06.04.07.07l.22.32h.24l-.12-.2a.69.69 0 00-.22-.23zm-.2-.14h-.15v-.24h.16c.07 0 .13 0 .2.02l.03.04.01.06-.01.06a.11.11 0 01-.04.04.55.55 0 01-.2.02zM24.07 31.55h.49v-.17h-.5v-.21h.54V31h-.73v.98h.74v-.16h-.54v-.27z"/></symbol><symbol id="icon-clients3" viewBox="0 0 31 32"><path fill="var(--color5, #afb1b8)" d="M4.83 30.85a.1.1 0 01.07.03l.15.16c-.12.13-.27.23-.44.3-.2.08-.4.11-.62.1-.2.01-.4-.02-.6-.1a1.28 1.28 0 01-.72-.72 1.55 1.55 0 010-1.13 1.31 1.31 0 01.78-.73 1.75 1.75 0 011.17-.01c.15.06.3.15.42.25l-.13.17-.03.03a.09.09 0 01-.06.02l-.05-.02-.07-.05-.1-.05a1.17 1.17 0 00-.54-.12c-.15 0-.3.02-.44.07a1 1 0 00-.34.21c-.1.1-.17.22-.22.34-.06.15-.08.3-.08.45 0 .16.02.31.08.46a1 1 0 00.22.34c.09.09.2.16.32.2.13.06.27.08.4.08l.25-.01a.92.92 0 00.51-.24.12.12 0 01.08-.03zM9.36 30.05c0 .2-.03.38-.1.56-.07.17-.17.32-.3.44s-.29.22-.46.29c-.39.13-.81.13-1.2 0a1.28 1.28 0 01-.76-.73 1.55 1.55 0 010-1.13c.08-.16.18-.31.3-.44.14-.12.3-.21.47-.28.38-.14.8-.14 1.19 0 .17.07.33.17.46.3.13.12.23.26.3.43.07.18.1.37.1.56zm-.41 0c0-.15-.02-.3-.07-.45a.92.92 0 00-.54-.55 1.3 1.3 0 00-.87 0 .92.92 0 00-.54.55c-.1.3-.1.61 0 .9a.92.92 0 00.54.55c.28.1.59.1.86 0a.91.91 0 00.54-.55c.06-.14.08-.3.08-.45zM12.45 30.53l.04.1.05-.1a.93.93 0 01.05-.1l1-1.68.05-.06h.39v2.73h-.36V29.4v-.09-.09l-1 1.7-.06.07c-.02.02-.06.02-.09.02h-.06a.16.16 0 01-.14-.09l-1.04-1.71v2.19h-.34V28.7h.38l.06.06 1.02 1.68a.6.6 0 01.05.1zM16.22 30.39v1.02h-.4V28.7h.88c.17 0 .33.01.49.06.13.03.24.09.34.17a.7.7 0 01.2.26c.05.11.07.23.07.35 0 .12-.03.24-.08.35-.04.1-.11.2-.2.27a.98.98 0 01-.35.19c-.16.04-.32.06-.48.06h-.47zm0-.3h.47c.1 0 .2 0 .3-.03a.64.64 0 00.23-.12.55.55 0 00.18-.41c0-.08-.01-.16-.04-.23s-.08-.13-.14-.18a.8.8 0 00-.53-.15h-.47v1.13zM21.49 31.42h-.31c-.03 0-.07-.01-.09-.03a.17.17 0 01-.05-.06l-.27-.66h-1.34l-.27.66a.14.14 0 01-.14.09h-.3l1.17-2.73h.4l1.2 2.73zm-1.94-1.02h1.1l-.46-1.11a1.81 1.81 0 01-.1-.26l-.04.15-.04.11-.46 1.11zM23.18 28.7c.02 0 .04.03.06.05l1.71 2.06v-.1-2.03h.36v2.74h-.2c-.03 0-.06 0-.08-.02a.2.2 0 01-.06-.05l-1.72-2.06v2.13h-.35v-2.74h.21c.02 0 .05 0 .07.02zM28.2 30.33v1.08h-.4v-1.08l-1.08-1.65h.35c.03 0 .06.01.08.03l.06.06.67 1.06a1.92 1.92 0 01.12.24l.05-.11a.89.89 0 01.07-.13l.67-1.07a.28.28 0 01.05-.06.12.12 0 01.08-.02h.36l-1.09 1.65zM12.26 24.1l.51.05c2.65-1.1 4.88-2.88 6.43-5.14s2.35-4.89 2.29-7.56l-2.92-2.7c.6 2.85.32 5.8-.8 8.5s-3.02 5.08-5.51 6.85z"/><path fill="var(--color5, #afb1b8)" d="M11.22 23.97l.07.02c2.67-1.76 4.7-4.22 5.83-7.05s1.32-5.92.54-8.85L13.5 4.26c1.68 3.15 2.35 6.67 1.95 10.16s-1.88 6.8-4.25 9.55zM25.3 14.6a13.82 13.82 0 01-4.9 7.56c-.71.58-1.49 1.1-2.31 1.54 2-.55 3.85-1.51 5.4-2.82s2.73-2.92 3.49-4.72l-1.69-1.55z"/><path fill="var(--color5, #afb1b8)" d="M24.63 14.17l-2.4-2.2c-.04 2.51-.82 4.98-2.24 7.13s-3.46 3.91-5.87 5.1h.01c.54 0 1.08-.03 1.61-.1 2.26-.84 4.25-2.2 5.8-3.93s2.61-3.8 3.1-6zM11.56 2.64L8.7 0C6.15.91 3.95 2.52 2.4 4.6S0 9.15 0 11.68c.01 2.8 1.03 5.5 2.9 7.7s4.47 3.77 7.41 4.45c2.62-2.95 4.16-6.6 4.38-10.4s-.87-7.6-3.13-10.79zM31.24 13.77c-.01-3.32-1.44-6.5-3.98-8.84s-5.99-3.67-9.58-3.68c-1.66 0-3.3.28-4.85.84l17.5 16.16c.6-1.43.9-2.95.9-4.48z"/></symbol><symbol id="icon-clients4" viewBox="0 0 64 32"><path fill="var(--color5, #afb1b8)" d="M9.96 9.7c-1.82 0-3.29 1.35-3.29 3.02s1.47 3.02 3.3 3.02c1.81 0 3.28-1.35 3.28-3.02S11.79 9.7 9.96 9.7zM34.26 8.74c0-2.32-1.01-4.54-2.8-6.17S27.26 0 24.73 0C22.21 0 19.8.93 18 2.56s-2.8 3.86-2.8 6.18V21.5s19.05-1.95 19.05-12.77zM0 25.7c0 1.6.7 3.15 1.95 4.3s2.92 1.77 4.68 1.78c1.75 0 3.44-.65 4.68-1.79s1.94-2.68 1.95-4.3v-8.88S0 18.17 0 25.7zm6.63 1.59c-.34 0-.68-.1-.97-.27s-.5-.42-.64-.71a1.5 1.5 0 01.38-1.74 1.89 1.89 0 011.9-.34c.31.12.58.32.77.58a1.5 1.5 0 01-.21 2.02 1.77 1.77 0 01-1.23.47v-.01zM20.09 26.4h-1.32v1.36h-.68v-3.33h2.17V25h-1.49v.86h1.32v.55zm3.3-.22c0 .32-.06.61-.18.86a1.32 1.32 0 01-1.24.77c-.27 0-.52-.07-.73-.2s-.39-.32-.5-.57a1.96 1.96 0 01-.19-.85v-.16a2 2 0 01.18-.87 1.32 1.32 0 011.24-.77 1.31 1.31 0 011.24.78c.12.24.18.53.18.86v.15zm-.7-.16c0-.34-.06-.6-.19-.8s-.3-.26-.53-.26c-.23 0-.4.09-.53.27-.13.17-.2.44-.2.78v.17c0 .34.07.6.2.79s.3.28.53.28a.6.6 0 00.53-.27c.13-.18.19-.45.2-.8v-.16zm2.92.87a.35.35 0 00-.14-.3c-.09-.07-.25-.14-.49-.22a3.56 3.56 0 01-.56-.22c-.38-.2-.57-.48-.57-.83a.8.8 0 01.15-.48 1 1 0 01.44-.33 1.66 1.66 0 011.27.01 1 1 0 01.43.36c.1.16.16.34.16.54h-.69a.44.44 0 00-.14-.36.6.6 0 00-.4-.12c-.17 0-.3.03-.4.1a.33.33 0 00-.14.28c0 .11.06.2.17.27.1.08.27.15.48.21.39.12.67.26.85.44s.27.39.27.65a.8.8 0 01-.33.68c-.21.16-.5.24-.88.24-.25 0-.48-.05-.7-.14-.2-.1-.37-.22-.48-.38a.99.99 0 01-.16-.57h.68c0 .37.22.55.66.55.17 0 .3-.03.39-.1.09-.07.13-.16.13-.28zm3.66-1.9h-1.02v2.78h-.68v-2.78h-1v-.55h2.7v.55zm2.4 1.33h-1.32v.9h1.55v.54h-2.23v-3.32h2.22v.55h-1.54v.8h1.32v.53zm1.86.23H33v1.21h-.69v-3.32h1.24c.39 0 .7.08.9.26s.33.42.33.74c0 .23-.05.42-.15.57a1 1 0 01-.45.36l.72 1.36v.03h-.73l-.63-1.22zm-.54-.56h.55c.17 0 .3-.04.4-.13.1-.09.14-.21.14-.36a.5.5 0 00-.13-.37c-.1-.1-.23-.14-.41-.14h-.55v1zm4.15.6v1.17h-.68v-3.32h1.3c.25 0 .47.04.66.13a1.08 1.08 0 01.6.96c-.01.33-.12.6-.35.78a1.4 1.4 0 01-.92.28h-.6zm0-.55h.62c.18 0 .32-.05.41-.13.1-.09.14-.2.14-.37 0-.16-.04-.3-.14-.4s-.23-.15-.4-.15h-.63v1.05zm4.34.28h-1.31v.9h1.54v.54h-2.23v-3.32h2.23v.55h-1.54v.8h1.31v.53zM44.67 25h-1.02v2.78h-.69v-2.78h-1v-.55h2.7v.55zm2.4 1.33h-1.32v.9h1.54v.54h-2.23v-3.32h2.23v.55h-1.54v.8h1.31v.53zm1.86.23h-.55v1.21h-.69v-3.32h1.24c.4 0 .7.08.91.26s.32.42.32.74c0 .23-.05.42-.15.57a1 1 0 01-.44.36l.72 1.36v.03h-.74l-.62-1.22zm-.55-.56h.55c.18 0 .3-.04.4-.13.1-.09.15-.21.15-.36a.5.5 0 00-.14-.37c-.09-.1-.23-.14-.4-.14h-.56v1zm4.03.9a.35.35 0 00-.14-.3c-.09-.07-.25-.14-.49-.22a3.56 3.56 0 01-.56-.22c-.38-.2-.57-.48-.57-.83a.8.8 0 01.15-.48 1 1 0 01.44-.33 1.66 1.66 0 011.27.01 1 1 0 01.43.36c.1.16.16.34.16.54h-.69a.44.44 0 00-.14-.36.6.6 0 00-.4-.12c-.17 0-.3.03-.4.1a.33.33 0 00-.14.28c0 .11.06.2.17.27.1.08.27.15.48.21.39.12.67.26.85.44s.27.39.27.65a.8.8 0 01-.33.68c-.22.16-.5.24-.88.24-.25 0-.49-.05-.7-.14-.2-.1-.37-.22-.48-.38a.99.99 0 01-.17-.57h.7c0 .37.21.55.65.55.16 0 .3-.03.38-.1.1-.07.14-.16.14-.28z"/></symbol><symbol id="icon-clients5" viewBox="0 0 40 32"><path fill="var(--color5, #afb1b8)" d="M3.06 26.74c.15.2.24.44.23.69a1.1 1.1 0 01-.36.87c-.3.23-.69.34-1.06.32H0v-4.37h1.83c.36-.02.72.08 1 .3a1 1 0 01.36.81c.01.24-.06.48-.2.67a1 1 0 01-.56.34c.24.04.47.18.63.37zm-2.2-.66h.79c.18.02.35-.03.5-.14a.51.51 0 00.16-.43.53.53 0 00-.16-.42.75.75 0 00-.51-.15H.87v1.14zm1.36 1.68a.54.54 0 00.19-.45.56.56 0 00-.2-.44.8.8 0 00-.52-.16H.87v1.2h.83c.19 0 .37-.05.52-.15zM6.79 28.62l-1.02-1.7H5.4v1.7h-.87v-4.36h1.65c.42-.03.83.1 1.16.37a1.4 1.4 0 01.12 1.8c-.2.24-.48.4-.8.44l1.1 1.75h-.96zm-1.4-2.3h.72c.5 0 .74-.22.74-.66a.64.64 0 00-.18-.5.77.77 0 00-.56-.17h-.73l.01 1.33zM11.57 27.74H9.83l-.31.88H8.6l1.6-4.32h1l1.59 4.32h-.92l-.3-.88zm-.23-.66l-.64-1.84-.64 1.84h1.27zM17.55 28.62h-.87l-1.94-2.97v2.97h-.87v-4.36h.87l1.94 2.98v-2.98h.87v4.36zM22.5 27.57c-.18.33-.45.6-.78.77-.38.2-.8.29-1.22.28h-1.55v-4.36h1.55c.42-.02.84.08 1.22.26.33.17.6.44.78.76a2.54 2.54 0 010 2.3zm-1-.1a1.6 1.6 0 000-2.08 1.5 1.5 0 00-1.08-.37h-.6v2.82h.6c.4.02.79-.1 1.09-.37zM12.11 0s11.2 4.25 10.96 10.39v10.4s-11.19-4.26-10.96-10.4V0zM33.05 18.35a15.3 15.3 0 017.12-2.63v-3.26a14.62 14.62 0 00-7.12 5.89z"/><path fill="var(--color5, #afb1b8)" d="M31.78 19.33c1.73-3.5 4.74-6.2 8.4-7.55V2.41S24.21 8.45 24.55 17.2V32s.7-.27 1.83-.78c0-.47 0-.95.05-1.43a15.39 15.39 0 015.34-10.46z"/><path fill="var(--color5, #afb1b8)" d="M30.27 24.82c.08-1.02.27-2.04.55-3.02a14.32 14.32 0 00-3.37 8.93c.9-.43 1.96-.98 3.06-1.62-.28-1.4-.36-2.85-.24-4.28zM30.9 24.88c-.1 1.3-.04 2.6.2 3.88 4.35-2.62 9.25-6.67 9.06-11.56v-.42a14.28 14.28 0 00-8.29 3.89 14.65 14.65 0 00-.97 4.2z"/></symbol><symbol id="icon-clients6" viewBox="0 0 63 32"><path fill="var(--color5, #afb1b8)" d="M31.82 14.71a2.2 2.2 0 01-.41-1.42v-2.05c0-.63.13-1.1.4-1.44s.73-.49 1.39-.49c.61 0 1.05.14 1.3.42.29.36.43.8.4 1.23v.48h-1.1v-.48c0-.16-.01-.32-.04-.48a.47.47 0 00-.15-.29.6.6 0 00-.4-.1.64.64 0 00-.42.1c-.1.1-.16.2-.18.32-.04.17-.05.34-.05.51v2.5c-.01.24.03.48.14.7.06.07.13.13.22.16s.19.05.29.04c.14.01.28-.03.39-.1a.51.51 0 00.16-.31c.03-.17.04-.33.04-.5V13h1.1v.45c.03.46-.1.91-.38 1.3-.26.3-.69.45-1.32.45s-1.11-.16-1.38-.5zM36.4 14.73c-.28-.32-.42-.78-.42-1.4v-2.16c0-.61.14-1.07.42-1.39s.74-.47 1.4-.47c.64 0 1.1.16 1.38.47.28.32.42.78.42 1.39v2.16c0 .61-.14 1.08-.42 1.4s-.75.48-1.39.48c-.64 0-1.11-.16-1.4-.48zm1.9-.52c.1-.2.15-.42.14-.64v-2.64c.01-.22-.03-.43-.13-.63-.06-.08-.14-.14-.23-.17s-.19-.05-.29-.04c-.1-.01-.2 0-.29.04s-.17.1-.22.17c-.1.2-.15.41-.14.63v2.66c-.01.22.04.44.14.64a.7.7 0 00.51.21c.1 0 .2-.02.28-.06s.17-.09.24-.15v-.02zM40.92 9.38h1.19l.9 3.98.9-3.98h1.16l.11 5.75h-.85l-.1-4-.87 4h-.69l-.9-4.01-.1 4.01h-.85l.1-5.75zM46.51 9.38h1.85c1.06 0 1.6.54 1.6 1.63 0 1.05-.57 1.57-1.69 1.57h-.63v2.55H46.5l.01-5.75zm1.58 2.46a.84.84 0 00.63-.19c.13-.19.18-.42.16-.65 0-.17-.01-.35-.06-.52-.01-.06-.04-.1-.08-.16s-.09-.08-.14-.11c-.16-.07-.34-.1-.51-.1h-.44v1.73h.44zM51.6 9.38h1.22l1.25 5.75h-1.06l-.24-1.32h-1.1l-.25 1.32h-1.08l1.26-5.75zm1.04 3.76l-.43-2.42-.42 2.42h.85zM55.09 9.38h.8l1.52 3.28V9.38h.95v5.75h-.76l-1.54-3.42v3.42h-.97V9.38zM60.58 12.94L59.3 9.39h1.07l.77 2.28.73-2.28h1.04l-1.25 3.55v2.2h-1.1v-2.2zM33.58 17.65v.3h-.93v2.34h-.4v-2.34h-.93v-.3h2.26zM36.49 20.3h-.3c-.03 0-.06-.02-.08-.03a.13.13 0 01-.06-.06l-.26-.63h-1.3l-.26.63-.04.07a.14.14 0 01-.09.02h-.3l1.14-2.64h.4l1.15 2.63zm-1.89-.99h1.08l-.46-1.07a1.82 1.82 0 01-.08-.25l-.04.14-.05.1-.45 1.08zM38.45 20.03h.22a1.21 1.21 0 00.34-.08l.16-.06v-.6h-.49l-.03-.02-.02-.02v-.22h.88v1a1.67 1.67 0 01-.76.27l-.34.02c-.2 0-.39-.03-.57-.1a1.26 1.26 0 01-.85-1.24 1.22 1.22 0 01.4-.97c.12-.12.28-.21.45-.27.2-.07.4-.1.6-.1a2.24 2.24 0 01.6.09 1.24 1.24 0 01.42.24l-.1.16-.04.04-.06.01c-.02 0-.05 0-.07-.02a1.55 1.55 0 01-.1-.06 1.48 1.48 0 00-.65-.15c-.16 0-.31.02-.45.07a.96.96 0 00-.34.2c-.09.1-.16.22-.2.34-.11.28-.11.6 0 .88a.95.95 0 00.56.54c.14.04.3.06.44.05zM42.09 19.99h1.24v.3h-1.62v-2.64h.39L42.09 20zM44.63 20.3h-.4v-2.65h.4v2.64zM46.08 17.66a.2.2 0 01.06.05l1.66 2v-.1-1.97h.34v2.65h-.2l-.08-.01a.23.23 0 01-.06-.05l-1.66-2v2.06h-.33v-2.64h.2l.07.01zM51.01 17.65v.3h-1.38v.86h1.12v.28h-1.12v.9H51v.3h-1.78v-2.64H51zM10.17 1.35l17.3 4.5v15.8l-17.3-4.5V1.34zM9.07 0v17.9L28.57 23V5.08L9.06 0z"/><path fill="var(--color5, #afb1b8)" d="M19.52 31.3L0 26.23V8.32l19.52 5.08v17.9zM9.38 1.14L26.46 5.6l-7.26 6.67L2.12 7.8l7.27-6.66zM9.06 0L0 8.31l19.52 5.09 9.06-8.31L9.06 0zM20.62 30.3l7.96-7.3-7.96-2.08v9.38z"/></symbol></defs></svg>